<svg fill="#666" xmlns="http://www.w3.org/2000/svg" xmlns:xlink="http://www.w3.org/1999/xlink" version="1.1" x="0px" y="0px" viewBox="0 0 100 100" enable-background="new 0 0 100 100" xml:space="preserve"><path fill="#666" d="M79.3,85.6c-1.5,0-3-0.6-4.1-1.6l-6.7-6.2c-3.2-3-7.4-4.6-11.8-4.6H27.1c-6.1,0-11-5-11-11V27.8  c0-6.1,5-11,11-11h47.2c6.1,0,11,5,11,11v51.7C85.4,82.9,82.7,85.6,79.3,85.6z M27.1,23.8c-2.2,0-4,1.8-4,4v34.3c0,2.2,1.8,4,4,4  h29.5c6.2,0,12.1,2.3,16.6,6.5l5.2,4.8V27.8c0-2.2-1.8-4-4-4H27.1z"></path></svg>